<svg class="svg-card-illustration" width="130" height="104" xmlns="http://www.w3.org/2000/svg">
    <g fill="none" fill-rule="evenodd">
        <path d="M104.3 81.2a9 9 0 0 1-8.9 8.8h-2.2a9 9 0 0 1-9-8.8V28.8a9 9 0 0 1 9-8.8h2.2c4.9 0 9 4 9 8.8v52.4z" fill="#F7DEBC"/>
        <path d="M104.3 81.2a9 9 0 0 1-8.9 8.8h-2.2a9 9 0 0 1-9-8.8V28.8a9 9 0 0 1 9-8.8h2.2c4.9 0 9 4 9 8.8v52.4z" stroke="#CFAB7C" stroke-width="5"/>
        <path d="M86.3 89.2a9 9 0 0 1-9 8.8h-2.2a9 9 0 0 1-8.9-8.8V36.8a9 9 0 0 1 9-8.8h2.1c5 0 9 4 9 8.8v52.4z" fill="#F7DEBC"/>
        <path d="M86.3 89.2a9 9 0 0 1-9 8.8h-2.2a9 9 0 0 1-8.9-8.8V36.8a9 9 0 0 1 9-8.8h2.1c5 0 9 4 9 8.8v52.4z" stroke="#CFAB7C" stroke-width="5"/>
        <path d="M67.2 92.2a9 9 0 0 1-9 8.8h-2.1a9 9 0 0 1-9-8.8V39.8a9 9 0 0 1 9-8.8h2.2c4.9 0 9 4 9 8.8v52.4z" fill="#F7DEBC"/>
        <path d="M67.2 92.2a9 9 0 0 1-9 8.8h-2.1a9 9 0 0 1-9-8.8V39.8a9 9 0 0 1 9-8.8h2.2c4.9 0 9 4 9 8.8v52.4z" stroke="#CFAB7C" stroke-width="5"/>
        <path d="M32.1 63.2c0 2.1 1.7 3.8 3.8 3.8h89.7c2 0 3.8-1.7 3.8-3.8V25H55.7A226 226 0 0 1 32 55.7v7.5z" fill="#81228B"/>
        <path d="M-4 99h26.4s11.3-.6 18.8-8.2c7.5-7.5 36-33.5 36-33.5s6.8-7.7 0-14.2c-4.4-4.3-12.9.6-12.9.6L33.2 63.5s-3.9-3.3-2.7-5.9c1-2.5 5.3-6.3 5.3-6.3L35.3 16s-2.2.6-9.7 6.5C18.1 28.3-3.2 43.2-3.2 43.2L-4 99z" fill="#F7DEBC"/>
        <path d="M-4 99h26.4s11.3-.6 18.8-8.2c7.5-7.5 36-33.5 36-33.5s6.8-7.7 0-14.2c-4.4-4.3-12.9.6-12.9.6L33.2 63.5s-3.9-3.3-2.7-5.9c1-2.5 5.3-6.3 5.3-6.3L35.3 16s-2.2.6-9.7 6.5C18.1 28.3-3.2 43.2-3.2 43.2L-4 99z" stroke="#CFAB7C" stroke-width="5"/>
        <path d="M65.8 0H35.9c-2 0-3.8 1.7-3.8 3.8V11h97.3V3.8c0-2.1-1.7-3.8-3.8-3.8H65.8zM32.1 25v36c8.3-5.3 18.1-20.8 27-36h-27z" fill="#81228B"/>
        <path fill="#271729" d="M63.1 11h-31v14h97.3V11z"/>
        <path fill="#FFF" d="M42.1 36h78.3v-7H42.1z"/>
    </g>
</svg>
