<svg xmlns="http://www.w3.org/2000/svg" viewBox="0 0 102 80"><style>.a{fill:url(#A)}.b{fill:url(#B)}.c{fill:#fff}.d{fill:#1c5a87}</style><linearGradient id="A" gradientUnits="userSpaceOnUse" x1=".51" y1="40" x2="101.49" y2="40"><stop offset="0" stop-color="#9dcb44"/><stop offset="1" stop-color="#76b042"/></linearGradient><path class="a" d="M16.9 79c-2.15-.03-9.26-.58-13.6-6.4-2.74-3.67-3.5-8.36-2.13-13.2l12.97-46.2.1-.27C16.27 7 22.12 1.03 30.58 1.03h35.7C66.23 1 66.57 1 67 1c3.06 0 10.73.77 15.74 7.89 2.69 3.8 13.89 19.42 15.16 21.19a15.86 15.86 0 0 1 3.6 9.73c0 4.7-2.15 7.74-3.71 9.96L82.33 71.71C80.17 75.13 74.9 79 67 79H16.9z"/><linearGradient id="B" gradientUnits="userSpaceOnUse" x1="5.3" y1="40" x2="96.69" y2="40"><stop offset="0" stop-color="#fad728"/><stop offset="1" stop-color="#f58728"/></linearGradient><path class="b" d="M16.9 74.2c-1.16-.02-6.65-.32-9.75-4.47C5.86 68 4.57 65.03 5.8 60.7l12.94-46.09.05-.14c1.1-3.22 4.83-8.65 11.8-8.65h35.7L67 5.8c2.31 0 8.1.57 11.82 5.85C81.5 15.47 92.72 31.1 94 32.88c.83 1.01 2.7 3.65 2.7 6.93 0 3.19-1.45 5.23-2.84 7.2L78.4 68.94c-1.58 2.5-5.43 5.26-11.41 5.26H16.9z"/><path class="c" d="M67 68.84H16.9s-7.8-.13-5.95-6.7l12.9-45.93s1.73-5.03 6.73-5.03h35.88s5.12-.5 7.98 3.56 15.32 21.43 15.32 21.43 1.57 1.8 1.57 3.64c0 1.54-.73 2.51-1.97 4.29L73.93 66s-1.61 2.84-6.93 2.84z"/><path class="d" d="M55 34.89c.8-3.82.02-6.98-3.96-6.98-5.6 0-8.1 5.68-9.62 12.82-2.24 10.54.16 12.98 3.98 12.98 5.19 0 6.62-5.2 7.27-8.28H68.1c-2.11 10.3-11.78 16.88-24.12 16.88-12.98 0-21.41-6.9-18.29-21.58 3.42-16.07 15.85-21.5 27.3-21.5 4.37 0 11.6.73 15.22 5.84 2.7 3.73 2.23 7.46 1.89 9.82H55z"/><circle class="d" cx="80.22" cy="40.77" r="5.8"/></svg>
